# xmcd
#
# Track frame offsets:
#	150
#	9119
#	23114
#	35383
#	46753
#	59772
#	72567
#	85249
#	98268
#	111888
#	123032
#	139464
#	154621
#	165728
#	179160
#	187867
#	198974
#	211469
#	228201
#
# Disc length: 3236 seconds
#
# Revision: 0
# Processed by: cddbd v1.5.2PL0 Copyright (c) Steve Scherf et al.
# Submitted via: audiograbber 1.83.01
#
DISCID=f70ca213
DTITLE=Bob Marley and The Wailers - Destiny (Rare Ska Sides From Studio 1)
DYEAR=1999
DGENRE=Reggae
TTITLE0=Destiny
TTITLE1=Wages Of Love
TTITLE2=Do You Feel The Same Way Too
TTITLE3=Your Love
TTITLE4=Don't Ever Leave Me (Take 1)
TTITLE5=Don't Ever Leave Me (Take 2)
TTITLE6=I Need You So
TTITLE7=Rock Sweet Rock
TTITLE8=Another Dance
TTITLE9=I Stand Predominant
TTITLE10=Where Is My Mother (Acoustic Version)
TTITLE11=Where Is My Mother (Band Take)
TTITLE12=Dance With Me
TTITLE13=What's New Pussycat
TTITLE14=Treat Me Good
TTITLE15=Jerking Time (aka Jerk In Time)
TTITLE16=Do It Right
TTITLE17=Let The Lord Be Seen In Me
TTITLE18=White Christmas (Bonus Track)
EXTD=
EXTT0=
EXTT1=
EXTT2=
EXTT3=
EXTT4=
EXTT5=
EXTT6=
EXTT7=
EXTT8=
EXTT9=
EXTT10=
EXTT11=
EXTT12=
EXTT13=
EXTT14=
EXTT15=
EXTT16=
EXTT17=
EXTT18=
PLAYORDER=
